<?xml version="1.0" standalone="no"?><!DOCTYPE svg PUBLIC "-//W3C//DTD SVG 1.1//EN" "http://www.w3.org/Graphics/SVG/1.1/DTD/svg11.dtd"><svg t="1615959827790" class="icon" viewBox="0 0 1024 1024" version="1.1" xmlns="http://www.w3.org/2000/svg" p-id="1500" xmlns:xlink="http://www.w3.org/1999/xlink" width="200" height="200"><defs><style type="text/css"></style></defs><path d="M872 242H720.1c4.4-12.5 6.9-26 6.9-40 0-66.2-53.8-120-120-120H417c-66.2 0-120 53.8-120 120 0 14 2.4 27.5 6.9 40H152c-22 0-40 18-40 40s18 40 40 40h60v470c0 82.5 67.5 150 150 150h300c82.5 0 150-67.5 150-150V322h60c22 0 40-18 40-40s-18-40-40-40z m-495-40c0-22.1 17.9-40 40-40h190c22.1 0 40 17.9 40 40s-17.9 40-40 40H417c-22.1 0-40-17.9-40-40z m355 590c0 18.5-7.3 36.1-20.6 49.4-13.3 13.3-30.9 20.6-49.4 20.6H362c-18.5 0-36.1-7.3-49.4-20.6-13.3-13.3-20.6-30.9-20.6-49.4V322h440v470z" fill="#4a5fe2" p-id="1501"></path><path d="M414 423c-22 0-40 18-40 40v220c0 22 18 40 40 40s40-18 40-40V463c0-22-18-40-40-40zM570 463v220c0 22 18 40 40 40s40-18 40-40V463c0-22-18-40-40-40s-40 18-40 40z" fill="#7c44e2" p-id="1502"></path></svg>