<?xml version="1.0" standalone="no"?><!DOCTYPE svg PUBLIC "-//W3C//DTD SVG 1.1//EN" "http://www.w3.org/Graphics/SVG/1.1/DTD/svg11.dtd"><svg t="1615887195216" class="icon" viewBox="0 0 1024 1024" version="1.1" xmlns="http://www.w3.org/2000/svg" p-id="1684" xmlns:xlink="http://www.w3.org/1999/xlink" width="200" height="200"><defs><style type="text/css"></style></defs><path d="M512 142c15.1 0 30.4 0.9 45.3 2.7 0.1 0 0.2 0 0.2 0.1 18.6 48.1 53.4 89 97.9 115.1 35.3 20.8 75.6 31.7 116.4 31.7 11.7 0 23.6-0.9 35.2-2.7 0.2 0.1 0.5 0.3 0.8 0.7 18.2 24.1 33.3 50.4 45.1 78.1-32.4 40.2-50.4 90.7-50.8 142.4-0.4 52.9 17.6 104.7 50.7 145.8 0 0.2 0 0.6-0.2 1.1-11.8 27.5-26.9 53.7-45 77.6-0.1 0.1-0.1 0.2-0.2 0.2-11-1.7-22.2-2.6-33.4-2.7h-1.8c-94.3 0-180.4 59-214.5 146.9-0.1 0-0.2 0-0.3 0.1-14.9 1.8-30.1 2.7-45.2 2.7-15.1 0-30.4-0.9-45.3-2.7-0.1 0-0.2 0-0.2-0.1C432.4 790.5 349 732.9 254 732.1h-1.8c-11.6 0-23.2 0.9-34.6 2.6h-0.3s-0.4 0-0.5-0.2c-18.3-24.2-33.6-50.6-45.4-78.4 0.1-0.1 0.2-0.3 0.4-0.6 7.6-9.5 14.5-19.7 20.5-30.3 46.8-82.6 38.6-183.7-20.9-257.7 11.8-27.9 27.2-54.4 45.6-78.7h0.2c11.5 1.8 23.3 2.7 35.1 2.7 94.3 0 180.4-59 214.5-146.9h0.2c14.6-1.7 29.9-2.6 45-2.6M512 62c-18.6 0-36.9 1.1-55 3.3-29.2 3.6-54.4 22.7-65 50.2-21.6 56.3-76.2 96.2-140 96.2-7.8 0-15.5-0.6-22.9-1.7-4.2-0.6-8.3-1-12.5-1-24.4 0-47.8 10.9-62.8 30.7-22.6 29.7-41.7 62.4-56.4 97.3-11.4 26.9-7 58 11.3 80.7 37.6 46.5 45.1 113.1 13.8 168.3-4 7.1-8.5 13.7-13.4 19.8-18.4 23-23.2 54.1-11.8 81.2 14.5 34.4 33.2 66.6 55.4 96 15.4 20.4 39.3 31.9 64.3 31.9 4.1 0 8.2-0.3 12.3-0.9 7.4-1.1 14.9-1.7 22.6-1.7h1.2c63.4 0.5 117.3 40.3 138.8 96.1 10.6 27.5 35.8 46.7 65 50.3 18 2.2 36.3 3.3 54.9 3.3s36.9-1.1 54.9-3.3c29.2-3.6 54.5-22.6 65-50.1 21.6-56.4 76.3-96.3 140.1-96.3h1.2c7.6 0.1 15.1 0.7 22.4 1.8 4 0.6 8.1 0.9 12 0.9 24.8 0 48.4-11.9 63.7-32.1 21.9-29 40.3-60.6 54.8-94.4 11.7-27.4 7.9-59.3-10.8-82.5-21-26-33.5-59.2-33.2-95.3 0.3-35.3 12.7-67.7 33.4-93.1 18.4-22.7 22.7-53.8 11.3-80.7-14.4-34.2-33-66.2-55-95.5-15.4-20.4-39.4-32.4-64.5-32.4-4 0-8.1 0.3-12.1 0.9-7.6 1.2-15.4 1.8-23.2 1.8-25.8 0-52-6.7-75.9-20.7-30.4-17.9-52.2-44.8-63.9-75.4-10.6-27.5-35.8-46.7-65-50.3-18-2.2-36.4-3.3-55-3.3z" fill="#ffffff" p-id="1685"></path><path d="M512 442c38.6 0 70 31.4 70 70s-31.4 70-70 70-70-31.4-70-70 31.4-70 70-70m0-80c-82.8 0-150 67.2-150 150s67.2 150 150 150 150-67.2 150-150-67.2-150-150-150z" fill="#ffffff" p-id="1686"></path></svg>