<?xml version="1.0" standalone="no"?><!DOCTYPE svg PUBLIC "-//W3C//DTD SVG 1.1//EN" "http://www.w3.org/Graphics/SVG/1.1/DTD/svg11.dtd"><svg t="1615960372210" class="icon" viewBox="0 0 1024 1024" version="1.1" xmlns="http://www.w3.org/2000/svg" p-id="2068" xmlns:xlink="http://www.w3.org/1999/xlink" width="200" height="200"><defs><style type="text/css"></style></defs><path d="M109.3 672v95c0 78.7 63.8 142.5 142.5 142.5h95c78.7 0 142.5-63.8 142.5-142.5V529.5H251.8c-78.7 0-142.5 63.8-142.5 142.5z m304 95c0 36.7-29.8 66.5-66.5 66.5h-95c-36.7 0-66.5-29.8-66.5-66.5v-95c0-36.7 29.8-66.5 66.5-66.5h161.5V767zM346.8 114.5h-95c-78.7 0-142.5 63.8-142.5 142.5v95c0 78.7 63.8 142.5 142.5 142.5h237.5V257c0-78.7-63.8-142.5-142.5-142.5z m66.5 304H251.8c-36.7 0-66.5-29.8-66.5-66.5v-95c0-36.7 29.8-66.5 66.5-66.5h95c36.7 0 66.5 29.8 66.5 66.5v161.5zM772.3 529.5H534.8V767c0 78.7 63.8 142.5 142.5 142.5h95c78.7 0 142.5-63.8 142.5-142.5v-95c0-78.7-63.8-142.5-142.5-142.5zM838.8 767c0 36.7-29.8 66.5-66.5 66.5h-95c-36.7 0-66.5-29.8-66.5-66.5V605.5h161.5c36.7 0 66.5 29.8 66.5 66.5v95z" fill="#4A5FE2" p-id="2069"></path><path d="M724.8 194.5c29.4 0 57 11.4 77.8 32.2s32.2 48.4 32.2 77.8-11.4 57-32.2 77.8-48.4 32.2-77.8 32.2-57-11.4-77.8-32.2-32.2-48.4-32.2-77.8 11.4-57 32.2-77.8c20.7-20.8 48.4-32.2 77.8-32.2m0-80c-104.9 0-190 85.1-190 190s85.1 190 190 190 190-85.1 190-190-85.1-190-190-190z" fill="#7C44E2" p-id="2070"></path></svg>