<?xml version="1.0" standalone="no"?><!DOCTYPE svg PUBLIC "-//W3C//DTD SVG 1.1//EN" "http://www.w3.org/Graphics/SVG/1.1/DTD/svg11.dtd"><svg t="1615880320891" class="icon" viewBox="0 0 1025 1024" version="1.1" xmlns="http://www.w3.org/2000/svg" p-id="2033" xmlns:xlink="http://www.w3.org/1999/xlink" width="200.1953125" height="200"><defs><style type="text/css"></style></defs><path d="M358.058 552C399.999 552 434 586 434 627.942v207.116C434 876.999 400 911 358.058 911H150.942C109.001 911 75 877 75 835.058V627.942C75 586.001 109 552 150.942 552zM921 804.6c16.513 0 29.9 13.387 29.9 29.9 0 16.348-13.12 29.632-29.406 29.896l-0.494 0.004H576c-16.513 0-29.9-13.387-29.9-29.9 0-16.348 13.12-29.632 29.406-29.896l0.494-0.004h345z m0-211c16.513 0 29.9 13.387 29.9 29.9 0 16.348-13.12 29.632-29.406 29.896l-0.494 0.004H576c-16.513 0-29.9-13.387-29.9-29.9 0-16.348 13.12-29.632 29.406-29.896l0.494-0.004h345zM358.058 113C399.999 113 434 147 434 188.942v207.116C434 437.999 400 472 358.058 472H150.942C109.001 472 75 438 75 396.058V188.942C75 147.001 109 113 150.942 113zM921 368.6c16.513 0 29.9 13.387 29.9 29.9 0 16.348-13.12 29.632-29.406 29.896l-0.494 0.004H576c-16.513 0-29.9-13.387-29.9-29.9 0-16.348 13.12-29.632 29.406-29.896l0.494-0.004h345z m0-212c16.513 0 29.9 13.387 29.9 29.9 0 16.348-13.12 29.632-29.406 29.896l-0.494 0.004H576c-16.513 0-29.9-13.387-29.9-29.9 0-16.348 13.12-29.632 29.406-29.896l0.494-0.004h345z" fill="#333333" p-id="2034"></path></svg>