<?xml version="1.0" standalone="no"?><!DOCTYPE svg PUBLIC "-//W3C//DTD SVG 1.1//EN" "http://www.w3.org/Graphics/SVG/1.1/DTD/svg11.dtd"><svg t="1615960031534" class="icon" viewBox="0 0 1024 1024" version="1.1" xmlns="http://www.w3.org/2000/svg" p-id="1784" xmlns:xlink="http://www.w3.org/1999/xlink" width="200" height="200"><defs><style type="text/css"></style></defs><path d="M512 162c47.3 0 93.1 9.2 136.2 27.5 41.7 17.6 79.1 42.9 111.3 75 32.2 32.2 57.4 69.6 75 111.3C852.8 418.9 862 464.7 862 512s-9.2 93.1-27.5 136.2c-17.6 41.7-42.9 79.1-75 111.3-32.2 32.2-69.6 57.4-111.3 75C605.1 852.8 559.3 862 512 862s-93.1-9.2-136.2-27.5c-41.7-17.6-79.1-42.9-111.3-75-32.2-32.2-57.4-69.6-75-111.3C171.2 605.1 162 559.3 162 512s9.2-93.1 27.5-136.2c17.6-41.7 42.9-79.1 75-111.3 32.2-32.2 69.6-57.4 111.3-75C418.9 171.2 464.7 162 512 162m0-80C274.5 82 82 274.5 82 512s192.5 430 430 430 430-192.5 430-430S749.5 82 512 82z" fill="#4a5fe2" p-id="1785"></path><path d="M432 702c-6.1 0-12.2-1.4-17.9-4.2C400.6 691 392 677.2 392 662V362c0-15.2 8.6-29 22.1-35.8 13.6-6.8 29.8-5.3 41.9 3.8l200 150c10.1 7.6 16 19.4 16 32 0 12.6-5.9 24.4-16 32L456 694c-7.1 5.3-15.5 8-24 8z m40-260v140l93.3-70-93.3-70z" fill="#7c44e2" p-id="1786"></path></svg>